<?xml version="1.0" encoding="UTF-8"?>
<svg version="1.1" xmlns="http://www.w3.org/2000/svg" width="512" height="512">
<path d="M0 0 C9.92929138 3.78067156 17.52625382 4.07594788 27.45605469 0.37329102 C29.0132472 -0.17516767 30.57054208 -0.72333577 32.12792969 -1.27124023 C33.31418945 -1.69783936 33.31418945 -1.69783936 34.52441406 -2.13305664 C38.56791277 -3.5775113 42.63606249 -4.94660408 46.70605469 -6.31420898 C47.44404297 -6.56831543 48.18203125 -6.82242188 48.94238281 -7.08422852 C66.7153086 -13.09710198 87.11950906 -11.00945046 104.08496094 -3.43920898 C115.60267361 2.32748253 125.96642379 10.04786927 132.95605469 20.99829102 C130.36180739 23.69186761 127.72584758 25.98612173 124.70605469 28.18579102 C110.49171545 39.21295435 102.80159153 54.24486296 99.20605469 71.62329102 C97.83659084 90.11105291 101.72738028 107.47210381 113.73681641 121.92749023 C119.82859099 128.76275783 127.0944229 133.42689772 134.95605469 137.99829102 C136.62331266 138.99730484 138.29021435 139.99691508 139.95605469 140.99829102 C139.4165702 146.2380341 138.13507975 150.62480764 135.95605469 155.43579102 C135.64627686 156.12680908 135.33649902 156.81782715 135.01733398 157.52978516 C124.47016884 180.56763214 107.45225659 211.1021315 83.06152344 221.30688477 C68.15082435 226.2033481 53.76906522 221.53041597 39.82128906 216.1340332 C21.54541957 209.19060728 4.97835274 212.18734688 -12.65136719 219.48486328 C-23.35045079 223.89256736 -35.11576875 226.58196867 -46.35644531 222.37329102 C-47.94075173 221.6262197 -49.50500863 220.83484121 -51.04394531 219.99829102 C-51.76710938 219.60899414 -52.49027344 219.21969727 -53.23535156 218.81860352 C-83.79743316 200.33920534 -102.29314519 157.97981573 -111.04394531 124.99829102 C-119.24083492 91.20483232 -118.96292809 55.72188023 -101.04394531 24.99829102 C-98.60595671 21.42765353 -95.94469259 18.20075836 -93.04394531 14.99829102 C-92.31691406 14.1668457 -91.58988281 13.33540039 -90.84082031 12.47875977 C-65.56415785 -14.7647953 -32.04447929 -12.65732244 0 0 Z " fill="#7E8C8D" transform="translate(244.0439453125,186.001708984375)"/>
<path d="M0 0 C3.69534734 11.08604203 -0.68281427 24.13007446 -5.625 34.1875 C-14.50222889 51.33869067 -28.58024188 63.42241597 -46.8125 69.8125 C-52.80668131 71.5141974 -58.82341211 71.26139165 -65 71 C-66.01989842 54.2661111 -59.61233138 37.75960406 -48.82421875 25.0078125 C-48.22222656 24.34523438 -47.62023437 23.68265625 -47 23 C-46.34644531 22.25492188 -45.69289063 21.50984375 -45.01953125 20.7421875 C-33.58410215 8.4527464 -16.9805563 -0.33295208 0 0 Z " fill="#7E8C8D" transform="translate(319,102)"/>
</svg>
