<?xml version="1.0" encoding="UTF-8"?>
<svg version="1.1" xmlns="http://www.w3.org/2000/svg" width="512" height="512">
<path d="M0 0 C1.01013153 0.00021149 2.02026306 0.00042297 3.06100464 0.00064087 C19.24903104 0.03438425 34.74730871 0.99371643 50.625 4.375 C51.54877441 4.56223633 52.47254883 4.74947266 53.42431641 4.94238281 C74.0953841 9.19031474 93.67281844 16.14110962 112.625 25.375 C113.42679687 25.76558594 114.22859375 26.15617187 115.0546875 26.55859375 C134.85387702 36.33003842 153.07911102 48.7530516 169.625 63.375 C168.31134063 66.27797734 166.90427877 68.34408109 164.65109253 70.5894165 C163.7382399 71.50639313 163.7382399 71.50639313 162.8069458 72.44189453 C162.14088318 73.1007666 161.47482056 73.75963867 160.78857422 74.43847656 C160.08602509 75.14131775 159.38347595 75.84415894 158.65963745 76.56829834 C156.33769689 78.88884625 154.00875372 81.2022308 151.6796875 83.515625 C150.06785268 85.12372947 148.45645903 86.73227625 146.8454895 88.34124756 C142.60512971 92.57397265 138.35879794 96.80065715 134.11120605 101.02612305 C129.77755457 105.33931271 125.44956212 109.65817249 121.12109375 113.9765625 C112.62793327 122.44827591 104.12845472 130.91362033 95.625 139.375 C92.48380611 137.86188203 89.67414818 136.08599509 86.80517578 134.10058594 C52.9000328 110.71711739 13.21873137 101.45393571 -27.46337891 108.74951172 C-58.73067778 114.78355185 -85.81453968 130.14582397 -108.375 152.375 C-109.13941406 153.12652344 -109.90382812 153.87804687 -110.69140625 154.65234375 C-139.68497981 184.99445561 -150.37887379 226.09264212 -149.50683594 266.94384766 C-148.0550413 304.72814731 -129.0505182 341.08488133 -101.86376953 366.8046875 C-78.47262445 388.18075445 -49.63457347 400.9611087 -18.375 405.375 C-17.51261719 405.50648438 -16.65023437 405.63796875 -15.76171875 405.7734375 C22.51586425 410.66556382 64.62781913 400.54685769 95.31982422 377.07910156 C117.41920601 359.80195729 128.98622303 337.11071939 136.625 310.375 C68.81 309.88 68.81 309.88 -0.375 309.375 C-0.375 276.375 -0.375 243.375 -0.375 209.375 C78.825 209.375 158.025 209.375 239.625 209.375 C241.87748364 216.13245093 241.87748364 216.13245093 242.44140625 219.546875 C242.56580078 220.29453125 242.69019531 221.0421875 242.81835938 221.8125 C243.00108398 222.9571875 243.00108398 222.9571875 243.1875 224.125 C243.31318359 224.87265625 243.43886719 225.6203125 243.56835938 226.390625 C253.63210113 287.93224996 237.89601882 359.04196231 202.05859375 410.01953125 C201.25113848 411.1407257 200.43993295 412.25922884 199.625 413.375 C199.00262451 414.22843994 199.00262451 414.22843994 198.36767578 415.09912109 C193.51723993 421.68758317 188.38244514 427.96347016 182.83203125 433.98046875 C181.34975961 435.58866789 179.88888925 437.21683582 178.44921875 438.86328125 C143.76296909 478.47830529 91.03020343 502.5930897 39.625 510.375 C38.50617432 510.55232666 37.38734863 510.72965332 36.23461914 510.91235352 C24.51264016 512.59376346 12.89000982 512.73233932 1.0625 512.6875 C0.04176392 512.68534485 -0.97897217 512.6831897 -2.03063965 512.68096924 C-16.66744304 512.63132085 -30.99318326 512.34234064 -45.375 509.375 C-46.90979004 509.06900879 -46.90979004 509.06900879 -48.47558594 508.75683594 C-92.20948525 499.85983007 -133.19131515 481.42351909 -166.80102539 451.76025391 C-167.94256925 450.75558199 -169.09113537 449.758871 -170.24389648 448.76708984 C-181.56616059 438.99221561 -192.37797635 428.34508856 -201.375 416.375 C-202.0870459 415.43696533 -202.0870459 415.43696533 -202.81347656 414.47998047 C-237.38985031 368.70447633 -256.57741309 314.75192476 -256.625 257.25 C-256.62567474 256.50922211 -256.62634949 255.76844421 -256.62704468 255.00521851 C-256.55563961 205.19317397 -242.34256057 151.83967218 -212.375 111.375 C-211.94396973 110.77993652 -211.51293945 110.18487305 -211.06884766 109.57177734 C-196.34126195 89.2399338 -179.60488031 69.44037383 -159.375 54.375 C-158.72595703 53.88725098 -158.07691406 53.39950195 -157.40820312 52.89697266 C-147.97724642 45.83646531 -138.40981033 39.17878604 -128.14892578 33.37939453 C-126.44297451 32.41348708 -124.75044346 31.42399341 -123.05859375 30.43359375 C-85.58235687 9.32922827 -42.7043349 -0.08279854 0 0 Z " fill="#34A852" transform="translate(261.375,-0.375)"/>
<path d="M0 0 C1.01013153 0.00021149 2.02026306 0.00042297 3.06100464 0.00064087 C19.24903104 0.03438425 34.74730871 0.99371643 50.625 4.375 C51.54877441 4.56223633 52.47254883 4.74947266 53.42431641 4.94238281 C74.0953841 9.19031474 93.67281844 16.14110962 112.625 25.375 C113.42679687 25.76558594 114.22859375 26.15617187 115.0546875 26.55859375 C134.85387702 36.33003842 153.07911102 48.7530516 169.625 63.375 C168.31134063 66.27797734 166.90427877 68.34408109 164.65109253 70.5894165 C163.7382399 71.50639313 163.7382399 71.50639313 162.8069458 72.44189453 C162.14088318 73.1007666 161.47482056 73.75963867 160.78857422 74.43847656 C160.08602509 75.14131775 159.38347595 75.84415894 158.65963745 76.56829834 C156.33769689 78.88884625 154.00875372 81.2022308 151.6796875 83.515625 C150.06785268 85.12372947 148.45645903 86.73227625 146.8454895 88.34124756 C142.60512971 92.57397265 138.35879794 96.80065715 134.11120605 101.02612305 C129.77755457 105.33931271 125.44956212 109.65817249 121.12109375 113.9765625 C112.62793327 122.44827591 104.12845472 130.91362033 95.625 139.375 C92.48380611 137.86188203 89.67414818 136.08599509 86.80517578 134.10058594 C52.9000328 110.71711739 13.21873137 101.45393571 -27.46337891 108.74951172 C-58.73067778 114.78355185 -85.81453968 130.14582397 -108.375 152.375 C-109.13941406 153.12652344 -109.90382812 153.87804687 -110.69140625 154.65234375 C-139.66980165 184.97857149 -150.37654866 226.07102129 -149.52001953 266.90429688 C-149.07493514 277.55635013 -147.10944883 288.07468399 -143.92578125 298.24609375 C-143.375 300.375 -143.375 300.375 -143.375 304.375 C-144.92529297 305.98388672 -144.92529297 305.98388672 -147.1171875 307.5546875 C-147.92696045 308.14652832 -148.7367334 308.73836914 -149.57104492 309.34814453 C-150.4551001 309.97575684 -151.33915527 310.60336914 -152.25 311.25 C-154.09875567 312.59745118 -155.94638979 313.94644235 -157.79296875 315.296875 C-159.1994165 316.3187793 -159.1994165 316.3187793 -160.63427734 317.36132812 C-164.67288501 320.32858592 -168.62056931 323.40610107 -172.5625 326.5 C-174.04912698 327.66190909 -175.53610418 328.82337022 -177.0234375 329.984375 C-177.74756836 330.54962891 -178.47169922 331.11488281 -179.21777344 331.69726562 C-187.35953478 338.02933714 -195.58642008 344.25234078 -203.79296875 350.5 C-205.18358521 351.55888428 -205.18358521 351.55888428 -206.60229492 352.63916016 C-208.3950217 354.00394977 -210.1881274 355.36824185 -211.98168945 356.73193359 C-212.81273193 357.36437988 -213.64377441 357.99682617 -214.5 358.6484375 C-215.30824219 359.26041992 -216.11648437 359.87240234 -216.94921875 360.50292969 C-218.61767846 361.79054533 -220.2652744 363.10550811 -221.89453125 364.44238281 C-222.69246094 365.09303711 -223.49039063 365.74369141 -224.3125 366.4140625 C-225.02277344 367.00654785 -225.73304688 367.5990332 -226.46484375 368.20947266 C-227.09519531 368.59409668 -227.72554687 368.9787207 -228.375 369.375 C-231.375 368.375 -231.375 368.375 -233.13671875 365.18359375 C-233.79371258 363.73329394 -234.43437409 362.27553393 -235.0625 360.8125 C-235.40772705 360.0181958 -235.7529541 359.2238916 -236.10864258 358.40551758 C-249.7685866 326.1675551 -256.59606814 292.20998094 -256.625 257.25 C-256.62567474 256.50922211 -256.62634949 255.76844421 -256.62704468 255.00521851 C-256.55563961 205.19317397 -242.34256057 151.83967218 -212.375 111.375 C-211.94396973 110.77993652 -211.51293945 110.18487305 -211.06884766 109.57177734 C-196.34126195 89.2399338 -179.60488031 69.44037383 -159.375 54.375 C-158.72595703 53.88725098 -158.07691406 53.39950195 -157.40820312 52.89697266 C-147.97724642 45.83646531 -138.40981033 39.17878604 -128.14892578 33.37939453 C-126.44297451 32.41348708 -124.75044346 31.42399341 -123.05859375 30.43359375 C-85.58235687 9.32922827 -42.7043349 -0.08279854 0 0 Z " fill="#EA4334" transform="translate(261.375,-0.375)"/>
<path d="M0 0 C79.2 0 158.4 0 240 0 C242.25248364 6.75745093 242.25248364 6.75745093 242.81640625 10.171875 C242.94080078 10.91953125 243.06519531 11.6671875 243.19335938 12.4375 C243.31517578 13.200625 243.43699219 13.96375 243.5625 14.75 C243.68818359 15.49765625 243.81386719 16.2453125 243.94335938 17.015625 C254.00710113 78.55724996 238.27101882 149.66696231 202.43359375 200.64453125 C201.62613848 201.7657257 200.81493295 202.88422884 200 204 C199.58508301 204.56895996 199.17016602 205.13791992 198.74267578 205.72412109 C193.24103246 213.19713372 187.29939116 220.18480504 181 227 C179.35200605 228.83139139 177.70613478 230.66469535 176.0625 232.5 C174.07656523 234.71359925 172.10275392 236.89724608 170 239 C166.22431236 238.69761809 163.80070943 236.56721339 160.875 234.3125 C160.36638428 233.92312256 159.85776855 233.53374512 159.33374023 233.13256836 C157.54982472 231.76264944 155.77462624 230.38192946 154 229 C152.55603515 227.88014957 151.11202236 226.76036097 149.66796875 225.640625 C146.57520474 223.2394066 143.48584233 220.83388551 140.3984375 218.42578125 C134.62106227 213.92161904 128.8120137 209.45934555 123 205 C115.5050645 199.2494101 108.02531858 193.47971906 100.5625 187.6875 C99.80493408 187.1006543 99.04736816 186.51380859 98.2668457 185.90917969 C94.11133091 182.6799302 90.02046738 179.39605248 86 176 C88.91619228 172.89566628 91.92974289 170.21766678 95.3125 167.625 C96.87551491 166.41733279 98.43802701 165.20901451 100 164 C100.65097656 163.50113281 101.30195313 163.00226563 101.97265625 162.48828125 C120.78551723 147.15212969 130.53534309 123.62629918 137 101 C69.185 100.505 69.185 100.505 0 100 C0 67 0 34 0 0 Z " fill="#4185F3" transform="translate(261,209)"/>
<path d="M0 0 C1.82958356 1.37218767 3.65908081 2.74448909 5.48828125 4.1171875 C7.19276724 5.39488928 8.89854095 6.67087465 10.60546875 7.9453125 C17.1292773 12.82242179 23.61245125 17.74980162 30.07885742 22.70263672 C35.96130762 27.20803964 41.85426218 31.69950276 47.75 36.1875 C53.4495163 40.52631175 59.14244906 44.87274878 64.8125 49.25 C72.15155675 54.90879902 79.57596693 60.45341817 87 66 C86.17768709 72.38149082 84.84431511 78.60443179 83.4609375 84.88476562 C78.47912997 107.95350871 79.38464815 133.30069639 86.44921875 155.87109375 C87 158 87 158 87 162 C85.44970703 163.60888672 85.44970703 163.60888672 83.2578125 165.1796875 C82.44803955 165.77152832 81.6382666 166.36336914 80.80395508 166.97314453 C79.9198999 167.60075684 79.03584473 168.22836914 78.125 168.875 C76.27624433 170.22245118 74.42861021 171.57144235 72.58203125 172.921875 C71.1755835 173.9437793 71.1755835 173.9437793 69.74072266 174.98632812 C65.70211499 177.95358592 61.75443069 181.03110107 57.8125 184.125 C56.32587302 185.28690909 54.83889582 186.44837022 53.3515625 187.609375 C52.62743164 188.17462891 51.90330078 188.73988281 51.15722656 189.32226562 C43.01546522 195.65433714 34.78857992 201.87734078 26.58203125 208.125 C25.65495361 208.83092285 24.72787598 209.5368457 23.77270508 210.26416016 C21.9799783 211.62894977 20.1868726 212.99324185 18.39331055 214.35693359 C17.56226807 214.98937988 16.73122559 215.62182617 15.875 216.2734375 C15.06675781 216.88541992 14.25851563 217.49740234 13.42578125 218.12792969 C11.75732154 219.41554533 10.1097256 220.73050811 8.48046875 222.06738281 C7.68253906 222.71803711 6.88460937 223.36869141 6.0625 224.0390625 C5.35222656 224.63154785 4.64195313 225.2240332 3.91015625 225.83447266 C3.27980469 226.21909668 2.64945313 226.6037207 2 227 C-1 226 -1 226 -2.76171875 222.80859375 C-3.41871258 221.35829394 -4.05937409 219.90053393 -4.6875 218.4375 C-5.03272705 217.6431958 -5.3779541 216.8488916 -5.73364258 216.03051758 C-19.3935866 183.7925551 -26.22106814 149.83498094 -26.25 114.875 C-26.25067474 114.13422211 -26.25134949 113.39344421 -26.25204468 112.63021851 C-26.19660196 73.95347945 -17.92926546 34.49249165 0 0 Z " fill="#FABB05" transform="translate(31,142)"/>
</svg>
